<?xml version="1.0" standalone="no"?><!DOCTYPE svg PUBLIC "-//W3C//DTD SVG 1.1//EN" "http://www.w3.org/Graphics/SVG/1.1/DTD/svg11.dtd"><svg t="1599552416127" class="icon" viewBox="0 0 1024 1024" version="1.1" xmlns="http://www.w3.org/2000/svg" p-id="2581" xmlns:xlink="http://www.w3.org/1999/xlink" width="16" height="16"><defs><style type="text/css"></style></defs><path d="M256.658 205.723L725.5 250v120.5L249 421V212.692a7 7 0 0 1 7.658-6.969z" fill="#00DDB9" p-id="2582"></path><path d="M718.343 252.5L808.12 214.336a13 13 0 0 1 14.289 2.783c26.727 26.79 40.091 58.75 40.091 95.88 0 40-13.167 76-39.5 108l-104.5-45.5-0.157-123z" fill="#00DDB9" p-id="2583"></path><path d="M183.92 214.321L226 199v222L178 402.106V222.778a9 9 0 0 1 5.92-8.457z" fill="#FFDA84" p-id="2584"></path><path d="M354 310m-45 0a45 45 0 1 0 90 0 45 45 0 1 0-90 0Z" fill="#FFDA84" p-id="2585"></path><path d="M333 412.5c20 7 34.833 22.5 44.5 46.5 9.667 24 22.333 155.166 38 393.5l63.5 27 15.5-6.5-27.5-398.5 17-46.5 28-33.5-179 18z" fill="#00DDB9" p-id="2586"></path><path d="M485 550h31v143h-31z" fill="#FF8484" p-id="2587"></path><path d="M230 172.5v0.005l0.057-0.046L718.83 219.82 822.605 176.581a20 20 0 0 1 23.21 5.844C875.938 219.471 891 258.163 891 298.5c0 40.405-15.112 81.082-45.337 122.032a20 20 0 0 1-23.784 6.584L718.83 384.178l-200.023 19.383-12.082 13.17a100 100 0 0 0-26.19 72.473l0.965 19.796 1.953 27.986 16.674-1.165c11.019-0.77 20.576 7.537 21.346 18.556l8.93 127.688c0.77 11.019-7.538 20.576-18.557 21.347l-16.701 1.167 11.172 160.13c0.769 11.02-7.54 20.575-18.56 21.344a20 20 0 0 1-8.547-1.275l-89.423-34.262a20 20 0 0 1-12.782-17.1L351 504.5l-0.145-2.56a100 100 0 0 0-44.7-77.773l-71.157 6.895a30.796 30.796 0 0 1-15.431-2.16l-0.56-0.233-0.012-0.003-56.322-22.176A20 20 0 0 1 150 387.88V211.944a20 20 0 0 1 13.711-18.986L224.138 172.941A12.133 12.133 0 0 1 230 172.5zM496.464 405.726L327.89 422.061l0.606 0.548a115.006 115.006 0 0 1 37.268 77.39l0.067 1.093 0.136 2.405 25.743 325.59a10 10 0 0 0 6.39 8.55l79.154 30.327a10 10 0 0 0 13.554-10.034L466.524 509.886l-0.973-19.952a115 115 0 0 1 29.5-82.662l0.62-0.681 0.792-0.866z m-0.278 145.407l-0.998 0.07c-5.51 0.385-9.663 5.164-9.278 10.673l8.231 117.713c0.385 5.509 5.164 9.663 10.673 9.278l0.998-0.07c5.51-0.385 9.663-5.164 9.278-10.673l-8.231-117.713c-0.385-5.51-5.164-9.663-10.673-9.278zM230.046 197.575a10 10 0 0 0-0.046 0.965v206.919c0 5.523 4.477 10 10 10a10 10 0 0 0 0.964-0.047l45.101-4.37-0.065-0.042 248-24-0.018 0.019 172.982-16.762a10 10 0 0 0 9.036-9.953V243.694a10 10 0 0 0-9.036-9.953l-466-45.155c-5.497-0.532-10.385 3.492-10.917 8.99z m591.301-4.22l-84.193 35.08A10 10 0 0 0 731 237.666v128.666a10 10 0 0 0 6.154 9.23l83.543 34.81a10 10 0 0 0 11.88-3.275c28.061-37.853 42.112-74 42.153-108.442 0.04-34.408-13.9-68.55-41.82-102.43a10 10 0 0 0-11.563-2.87zM205 195.617a10 10 0 0 0-3.144 0.507l-30 9.937A10 10 0 0 0 165 215.554v168.921a10 10 0 0 0 6.336 9.305l30 11.812A10 10 0 0 0 215 396.286V205.617c0-5.523-4.477-10-10-10z m140 44.383c33.137 0 60 26.863 60 60s-26.863 60-60 60-60-26.863-60-60 26.863-60 60-60z m0 15c-24.853 0-45 20.147-45 45s20.147 45 45 45 45-20.147 45-45-20.147-45-45-45z" fill="#3D3D3D" p-id="2588"></path></svg>